<?xml version="1.0" encoding="UTF-8"?>
<svg id="Outlined" xmlns="http://www.w3.org/2000/svg" viewBox="0 0 453.08 196.95">
  <defs>
    <style>
      .cls-1 {
        fill: #e51e25;
      }

      .cls-2 {
        fill: #3a53a4;
      }

      .cls-2, .cls-3 {
        stroke: #fff;
        stroke-miterlimit: 10;
        stroke-width: 2px;
      }

      .cls-3 {
        fill: #db7db3;
      }
    </style>
  </defs>
  <path class="cls-1" d="M142.27,196.95v-6.43l45.74-36.29c49.9-39.31,63.88-60.1,63.88-100.17,0-32.13-11.34-49.14-34.02-49.14-15.88,0-23.44,6.43-23.44,12.85,0,7.94,9.07,11.72,9.07,24.57,0,13.99-10.58,24.57-26.08,24.57-18.14,0-27.97-10.58-27.97-24.57C149.45,17.39,177.42,0,221.27,0c47.25,0,86.94,18.9,86.94,55.94,0,34.02-24.57,54.05-119.07,102.06h80.89c47.25,0,49.52-4.16,50.28-20.03l.38-7.56h4.16v66.53H142.27Z"/>
  <g>
    <path class="cls-3" d="M323.63,56.11c0,28.64-18.47,52.7-44.88,52.7-22.44,0-36.95-17.48-36.95-38.69,0-14.38,6.7-25.79,13.89-33.73,7.56-8.31,14.01-11.41,15.62-11.41,.25,0,1.12,.12,1.12,1.12,0,2.48-6.2,9.3-6.2,23.93,0,20.95,12.77,33.73,28.02,33.73s25.91-12.77,25.91-31.49-11.53-29.51-24.43-29.51c-6.57,0-8.93,2.6-8.93,5.08,0,2.11,1.61,4.46,4.84,4.46,3.47,0,6.7-2.85,10.91-2.85,6.2,0,10.79,6.2,10.79,13.02,0,9.05-7.94,17.61-18.6,17.61s-20.09-8.68-20.09-20.58,8.68-19.34,20.83-19.34c15,0,28.15,11.78,28.15,35.96h0Z"/>
    <path class="cls-3" d="M356.61,74.09c-1.86,3.97-2.48,8.93-2.85,11.9-1.86,16.74-7.44,22.81-17.11,22.81-8.8,0-13.39-7.81-13.39-14.63,0-14.88,16.74-25.67,16.74-41.04,0-3.6-1.98-6.2-4.83-6.2-3.6,0-6.08,3.97-6.08,9.42s2.11,7.32,2.11,8.93c0,.62-.5,1.12-.99,1.12-.74,0-1.12-.62-1.61-1.74-1.12-2.73-1.74-5.58-1.74-8.31,0-7.07,3.72-13.27,11.53-13.27,10.42,0,15.25,8.8,15.25,19.34,0,8.31-2.85,15-2.85,17.24,0,.87,.25,1.24,.74,1.24,.74,0,1.12-1.36,1.74-3.6,.99-3.84,1.98-8.93,2.85-11.9,3.35-11.78,10.54-22.32,22.2-22.32,9.18,0,14.38,6.94,14.38,15,0,17.73-18.1,23.31-18.1,37.2,0,4.84,1.86,7.94,5.46,7.94,3.97,0,6.82-5.21,6.82-11.28,0-4.84-2.11-7.07-2.11-8.43,0-.37,.25-1.12,.99-1.12,.62,0,.99,.25,1.74,1.98,.99,2.36,1.49,5.08,1.49,7.69,0,8.31-4.96,16.74-17.98,16.74-10.66,0-16.86-5.83-16.86-12.52,0-17.73,27.77-12.65,27.77-22.19,0-3.84-4.09-8.43-11.41-8.43s-11.66,3.6-13.89,8.43h0Z"/>
    <path class="cls-3" d="M414.27,74.34c-1.12-1.61-1.36-2.73-2.11-2.73-.5,0-.5,.74-.5,1.12,0,7.56,11.53,18.85,24.18,18.85,9.3,0,14.01-4.71,14.01-10.91,0-1.36-.5-2.23-.5-2.85,0-.5,.12-1.24,.99-1.24,1.49,0,1.74,4.09,1.74,5.58,0,13.39-12.03,26.66-29.76,26.66s-28.89-13.39-28.89-28.89c0-18.1,13.89-36.83,35.09-36.83,13.76,0,22.94,7.81,22.94,19.1,0,10.29-7.56,20.46-20.71,20.46-8.68,0-13.89-4.46-16.49-8.31h.01Zm5.33-.38c6.57,0,11.04-11.53,11.04-19.1,0-4.34-1.49-9.3-5.83-9.3-5.7,0-11.28,8.68-11.28,18.23,0,5.08,1.61,10.17,6.08,10.17h-.01Z"/>
  </g>
  <g>
    <path class="cls-2" d="M38.91,179.59c-1.38,0-6.1-.64-12.26-.64-4.96,0-10.94,.64-12.32,.64-.36,0-.48-.28-.48-1.93s.12-1.93,.48-2.02l3.83-.64c.6-.09,.72-.37,.72-1.29v-56.03c0-.92-.12-1.1-.72-1.1h-.24c-.9,0-3.29,.37-5.68,1.2-1.2,.37-1.44,.74-2.09,2.39-2.03,5.43-3.23,8.56-5.8,15.27-.3,.74-.36,.92-.84,.92-.96,0-2.51-.92-2.51-1.66,0-4.32,2.63-20.06,3.83-26.86,.18-.92,1.38-1.47,2.15-1.47,.36,0,.48,.28,.66,.74,.6,1.47,1.2,2.94,1.79,4.23,.36,.74,.42,.83,.9,.92,3.47,.37,4.96,.46,7.59,.46h17.4c5.02,0,7.54-.09,11-.46,.48-.09,.54-.18,.9-.92,.6-1.29,1.2-2.76,1.79-4.23,.18-.46,.3-.74,.66-.74,.78,0,2.15,.55,2.15,1.47,0,6.81-.3,19.59-.96,27.6-.06,.74-.24,.92-1.61,.92s-1.55-.18-1.73-.92c-1.61-7.18-2.03-9.84-3.53-15.27-.48-1.75-.9-2.02-2.09-2.39-2.39-.83-5.68-1.2-6.58-1.2h-.24c-.6,0-.72,.18-.72,1.1v56.03c0,.92,.12,1.2,.72,1.29l3.83,.64c.36,.09,.48,.37,.48,2.02s-.12,1.93-.48,1.93h0Z"/>
    <path class="cls-2" d="M104.75,177.66c0,1.66-.12,1.93-.48,1.93-1.38,0-6.1-.64-11.06-.64s-9.75,.64-11.12,.64c-.36,0-.48-.28-.48-1.93s.12-1.93,.48-2.02l2.63-.64c.6-.18,.72-.37,.72-1.29v-26.95h-13.22v26.95c0,.92,.12,1.1,.72,1.29l2.63,.64c.36,.09,.48,.37,.48,2.02s-.12,1.93-.48,1.93c-1.38,0-6.1-.64-11.06-.64s-9.75,.64-11.12,.64c-.36,0-.48-.28-.48-1.93s.12-1.93,.48-2.02l2.63-.64c.6-.18,.72-.37,.72-1.29v-55.75c0-.92-.12-1.1-.72-1.29l-2.63-.64c-.36-.09-.48-.37-.48-2.02s.12-1.93,.48-1.93c1.38,0,6.1,.64,11.06,.64s9.75-.64,11.12-.64c.36,0,.48,.28,.48,1.93s-.12,1.93-.48,2.02l-2.63,.64c-.6,.18-.72,.37-.72,1.29v24.19h13.22v-24.19c0-.92-.12-1.1-.72-1.29l-2.63-.64c-.36-.09-.48-.37-.48-2.02s.12-1.93,.48-1.93c1.38,0,6.1,.64,11.06,.64s9.75-.64,11.12-.64c.36,0,.48,.28,.48,1.93s-.12,1.93-.48,2.02l-2.63,.64c-.6,.18-.72,.37-.72,1.29v55.75c0,.92,.12,1.1,.72,1.29l2.63,.64c.36,.09,.48,.37,.48,2.02Z"/>
    <path class="cls-2" d="M159.47,177.57c0,1.66-.12,1.93-.48,1.93-.48,0-6.16-.46-10.52-.46-3.35,0-7,.46-7.77,.46-.72,0-1.08-.37-1.44-1.38-2.69-7.63-5.74-16.47-9.27-25.02-1.32-3.22-1.67-3.59-3.53-3.77h-.24v24.38c0,.92,.12,1.1,.72,1.29l2.63,.64c.36,.09,.48,.37,.48,2.02s-.12,1.93-.48,1.93c-1.38,0-6.1-.64-11.06-.64s-9.75,.64-11.12,.64c-.36,0-.48-.28-.48-1.93s.12-1.93,.48-2.02l2.63-.64c.6-.18,.72-.37,.72-1.29v-55.75c0-.92-.12-1.1-.72-1.29l-2.63-.64c-.36-.09-.48-.37-.48-2.02s.12-1.93,.48-1.93c3.47,0,8.13,.64,13.81,.64h3.23c2.15,0,8.79-.37,12.86-.37,10.05,0,14.59,6.35,14.59,16.1,0,7.36-2.81,13.52-8.67,16.56,1.32,3.86,2.69,7.18,5.92,15,5.2,12.42,6.4,14.9,8.43,15.27l1.44,.28c.36,.09,.48,.37,.48,2.02h0Zm-30.92-32.21c3.17,0,7-2.76,7-14.08,0-8.56-2.75-14.9-8.25-14.9h-.36c-.6,0-.72,.18-.72,1.1v27.51c.48,.18,1.26,.37,2.33,.37Z"/>
    <path class="cls-2" d="M204.08,154.29c-.84,7.54-1.97,16.47-2.93,23.27-.24,1.84-.36,2.02-1.55,2.02-4.07,0-9.39-.64-15.91-.64h-6.28c-7.95,0-15.01,.64-16.39,.64-.36,0-.48-.28-.48-1.93s.12-1.93,.48-2.02l2.63-.64c.6-.18,.72-.37,.72-1.29v-55.75c0-.92-.12-1.1-.72-1.29l-2.63-.64c-.36-.09-.48-.37-.48-2.02s.12-1.93,.48-1.93c1.38,0,7.59,.64,18.54,.64h1.26c6.76,0,17.16-.55,20.51-.55,1.2,0,1.32,.18,1.32,2.02,0,6.53-.3,13.43-.9,21.25-.06,.74-.24,.92-1.61,.92s-1.55-.18-1.73-.92c-1.61-7.18-2.03-9.66-3.53-15.09-.48-1.75-.9-2.12-2.09-2.39-2.99-.64-9.69-1.38-11.96-1.38h-.24c-.6,0-.72,.18-.72,1.1v24.75h4.43c1.2,0,1.44-.28,1.97-2.12l2.81-9.66c.18-.55,.24-.64,1.61-.64s1.49,.18,1.49,.92c0,5.34-.06,8.56-.06,13.8s.06,8.46,.06,13.8c0,.74-.12,.92-1.49,.92s-1.44-.09-1.61-.64l-2.81-9.66c-.54-1.84-.78-2.12-1.97-2.12h-4.43v23.18c0,1.47,.3,2.58,.96,3.59,.6,.92,1.32,1.29,2.09,1.29,2.27,0,6.16-.55,9.09-1.47,1.2-.37,1.55-.74,2.27-2.58,2.09-5.52,4.19-11.68,6.4-17.66,.24-.64,.36-.74,.72-.74,.96,0,2.81,.74,2.69,1.66h-.01Z"/>
    <path class="cls-2" d="M249.11,154.29c-.84,7.54-1.97,16.47-2.93,23.27-.24,1.84-.36,2.02-1.55,2.02-4.07,0-9.39-.64-15.91-.64h-6.28c-7.95,0-15.01,.64-16.39,.64-.36,0-.48-.28-.48-1.93s.12-1.93,.48-2.02l2.63-.64c.6-.18,.72-.37,.72-1.29v-55.75c0-.92-.12-1.1-.72-1.29l-2.63-.64c-.36-.09-.48-.37-.48-2.02s.12-1.93,.48-1.93c1.38,0,7.59,.64,18.54,.64h1.26c6.76,0,17.16-.55,20.51-.55,1.2,0,1.32,.18,1.32,2.02,0,6.53-.3,13.43-.9,21.25-.06,.74-.24,.92-1.61,.92s-1.55-.18-1.73-.92c-1.61-7.18-2.03-9.66-3.53-15.09-.48-1.75-.9-2.12-2.09-2.39-2.99-.64-9.69-1.38-11.96-1.38h-.24c-.6,0-.72,.18-.72,1.1v24.75h4.43c1.2,0,1.43-.28,1.97-2.12l2.81-9.66c.18-.55,.24-.64,1.61-.64s1.5,.18,1.5,.92c0,5.34-.06,8.56-.06,13.8s.06,8.46,.06,13.8c0,.74-.12,.92-1.5,.92s-1.44-.09-1.61-.64l-2.81-9.66c-.54-1.84-.78-2.12-1.97-2.12h-4.43v23.18c0,1.47,.3,2.58,.96,3.59,.6,.92,1.32,1.29,2.09,1.29,2.27,0,6.16-.55,9.09-1.47,1.2-.37,1.55-.74,2.27-2.58,2.09-5.52,4.19-11.68,6.4-17.66,.24-.64,.36-.74,.72-.74,.96,0,2.81,.74,2.69,1.66h-.01Z"/>
  </g>
</svg>